<svg width="50" height="50" viewBox="0 0 50 50" fill="none" xmlns="http://www.w3.org/2000/svg">
<g clip-path="url(#clip0_1_103)">
<path d="M50.175 26.6598V26.6584L49.4794 25.9066L49.5398 25.7423L49.5397 25.7423L38.3202 21.6134V8.37653V8.20153H38.3193C38.3384 7.78651 38.0896 7.39231 37.6844 7.24632C37.6842 7.24624 37.684 7.24615 37.6837 7.24607L25.8309 2.88479C25.8308 2.88474 25.8306 2.88469 25.8305 2.88464C25.6172 2.80512 25.3828 2.80512 25.1695 2.88464C25.1694 2.88469 25.1692 2.88474 25.1691 2.88479L13.315 7.24652L13.3144 7.24673C13.0502 7.34503 12.8444 7.55329 12.7456 7.81362H12.6798V7.98862V21.6134L1.46019 25.7423L1.45961 25.7426C1.19537 25.8409 0.989598 26.0491 0.890798 26.3094H0.825V26.4844V40.6632V40.8382H0.825463C0.825294 41.2392 1.07159 41.6106 1.46032 41.7533L13.314 46.1149C13.314 46.1149 13.3141 46.1149 13.3142 46.115C13.5276 46.195 13.7625 46.195 13.976 46.115C13.9761 46.115 13.9762 46.1149 13.9763 46.1149L25.5 41.8745L37.0237 46.1149C37.0237 46.1149 37.0238 46.1149 37.0239 46.115C37.2374 46.195 37.4723 46.195 37.6858 46.115C37.6859 46.1149 37.6859 46.1149 37.686 46.1149L49.5398 41.7533C49.7906 41.661 49.9898 41.469 50.0942 41.2261H50.175V41.0511L50.175 26.8724L50.175 26.8716V26.8715L50.175 26.8712L50.175 26.87L50.175 26.8655L50.1749 26.8485L50.1748 26.7922C50.1747 26.7478 50.1747 26.6951 50.175 26.6598ZM12.6798 31.7034V43.8066L2.75565 40.1552V28.051L12.6798 31.7034ZM13.5829 23.3557L22.6193 26.6814L13.6452 29.9831L4.60971 26.6584L13.5829 23.3557ZM24.5347 28.051V40.1552L14.6105 43.8066V31.7034L24.5347 28.051ZM24.5347 13.2075V25.2658L14.6105 21.6134V9.5552L24.5347 13.2075ZM16.4646 8.16258L25.5 4.83785L34.5354 8.16258L25.5 11.4873L16.4646 8.16258ZM26.4653 13.2075L36.3895 9.5552V21.6134L26.4653 25.2658V13.2075ZM36.3895 31.7034V43.8066L26.4653 40.1552V28.051L36.3895 31.7034ZM46.3903 26.6584L37.3548 29.9831L28.3807 26.6814L37.4171 23.3557L46.3903 26.6584ZM48.2444 28.051V40.1552L38.3202 43.8066V31.7034L48.2444 28.051Z" fill="#FC85B4" stroke="#FC85B4" stroke-width="0.35"/>
</g>
<defs>
<clipPath id="clip0_1_103">
<rect width="50" height="50" fill="white"/>
</clipPath>
</defs>
</svg>
