<svg width="44" height="44" viewBox="0 0 44 44" fill="none" xmlns="http://www.w3.org/2000/svg">
<g clip-path="url(#clip0_1_115)">
<path d="M38.4409 18.1472L38.7835 17.9339L43.2599 15.1477L43.392 15.36L43.2599 15.1477C43.5642 14.9583 43.7494 14.6255 43.7499 14.2672C43.7505 13.9087 43.5663 13.5754 43.2625 13.3851L43.3953 13.1732L43.2625 13.3851L22.5517 0.408561L22.6842 0.197064L22.5517 0.40856C22.2142 0.197147 21.7857 0.197146 21.4482 0.408561L21.3155 0.19671L21.4482 0.408561L0.737392 13.3851C0.433746 13.5753 0.249533 13.9087 0.250001 14.2672L38.4409 18.1472ZM38.4409 18.1472L38.7844 18.359M38.4409 18.1472L38.7844 18.359M43.392 23.0944L43.2599 22.8822L38.7835 25.6683L38.4409 25.8816L38.7844 26.0934L43.2561 28.8499C43.5618 29.0384 43.7486 29.3715 43.7499 29.7306C43.7512 30.0898 43.5669 30.4242 43.2625 30.6149L22.5517 43.5914L22.6844 43.8033L22.5516 43.5915C22.383 43.6972 22.1915 43.75 22 43.75C21.8085 43.75 21.6171 43.6972 21.4483 43.5914L0.737478 30.6149L0.604741 30.8268L0.737467 30.6149C0.434063 30.4248 0.249879 30.0919 0.250087 29.7339C0.250295 29.3758 0.434829 29.0431 0.738466 28.8533L5.18621 26.0735L5.52612 25.8611L5.18581 25.6493L0.740129 22.8823C0.740122 22.8823 0.740116 22.8823 0.740109 22.8822C0.43565 22.6927 0.250433 22.3596 0.250087 22.001C0.249741 21.6424 0.434335 21.309 0.73845 21.119L5.18613 18.339L5.52602 18.1265L5.18572 17.9147L0.740023 15.1477L0.739982 15.1477C0.435747 14.9584 0.250572 14.6256 0.250001 14.2672L43.392 23.0944ZM43.392 23.0944L43.2599 22.8822C43.5653 22.6921 43.7507 22.3575 43.7499 21.9978C43.7491 21.6381 43.5623 21.3043 43.2561 21.1155L38.7844 18.359M43.392 23.0944L38.7844 18.359M3.59006 14.0503L3.25082 14.2628L3.5907 14.4744L21.8679 25.8502L22 25.9325L22.1321 25.8502L40.4093 14.4744L40.7492 14.2629L40.4099 14.0503L22.1327 2.59855L22 2.51538L21.8673 2.59855L3.59006 14.0503ZM40.4015 29.9552L40.7424 29.7416L40.4 29.5306L36.6021 27.1894L36.4703 27.1081L36.3389 27.1899L22.549 35.7728C22.381 35.8774 22.1906 35.9297 22 35.9297C21.8094 35.9297 21.619 35.8774 21.451 35.7728L7.62299 27.1662L7.49061 27.0838L7.35838 27.1665L3.58669 29.5238L3.24791 29.7355L3.58645 29.9477L21.8673 41.4016L22 41.4848L22.1327 41.4016L40.4015 29.9552ZM21.8679 33.5846L22 33.6668L22.1321 33.5846L40.3951 22.2176L40.7376 22.0043L40.3941 21.7925L36.6021 19.455L36.4703 19.3738L36.3389 19.4556L22.549 28.0385C22.381 28.1431 22.1906 28.1954 22 28.1954C21.8094 28.1954 21.619 28.1431 21.451 28.0385L7.62299 19.4319L7.49061 19.3495L7.35838 19.4321L3.59245 21.7859L3.25254 21.9983L3.59284 22.2101L21.8679 33.5846Z" fill="#F78CB6" stroke="#F78CB6" stroke-width="0.5"/>
</g>
<defs>
<clipPath id="clip0_1_115">
<rect width="44" height="44" fill="white"/>
</clipPath>
</defs>
</svg>
